<svg xmlns="http://www.w3.org/2000/svg" viewBox="0 0 32 32" width="100%" height="100%" shape-rendering="crispEdges">
  <title>Prism Low-Pixel Logo</title>
  <rect x="3" y="0" width="26" height="1" fill="#1e293b" />
  <rect x="2" y="1" width="1" height="1" fill="#1e293b" />
  <rect x="3" y="1" width="26" height="1" fill="#0b0f19" />
  <rect x="29" y="1" width="1" height="1" fill="#1e293b" />
  <rect x="1" y="2" width="1" height="1" fill="#1e293b" />
  <rect x="2" y="2" width="28" height="1" fill="#0b0f19" />
  <rect x="30" y="2" width="1" height="1" fill="#1e293b" />
  <rect x="0" y="3" width="1" height="1" fill="#1e293b" />
  <rect x="1" y="3" width="30" height="1" fill="#0b0f19" />
  <rect x="31" y="3" width="1" height="1" fill="#1e293b" />
  <rect x="0" y="4" width="1" height="1" fill="#1e293b" />
  <rect x="1" y="4" width="25" height="1" fill="#0b0f19" />
  <rect x="26" y="4" width="1" height="1" fill="#19263a" />
  <rect x="27" y="4" width="4" height="1" fill="#0b0f19" />
  <rect x="31" y="4" width="1" height="1" fill="#1e293b" />
  <rect x="0" y="5" width="1" height="1" fill="#1e293b" />
  <rect x="1" y="5" width="4" height="1" fill="#0b0f19" />
  <rect x="5" y="5" width="1" height="1" fill="#19263a" />
  <rect x="6" y="5" width="25" height="1" fill="#0b0f19" />
  <rect x="31" y="5" width="1" height="1" fill="#1e293b" />
  <rect x="0" y="6" width="1" height="1" fill="#1e293b" />
  <rect x="1" y="6" width="14" height="1" fill="#0b0f19" />
  <rect x="15" y="6" width="1" height="1" fill="#38bdf8" />
  <rect x="16" y="6" width="7" height="1" fill="#0b0f19" />
  <rect x="23" y="6" width="1" height="1" fill="#19263a" />
  <rect x="24" y="6" width="7" height="1" fill="#0b0f19" />
  <rect x="31" y="6" width="1" height="1" fill="#1e293b" />
  <rect x="0" y="7" width="1" height="1" fill="#1e293b" />
  <rect x="1" y="7" width="13" height="1" fill="#0b0f19" />
  <rect x="14" y="7" width="1" height="1" fill="#ffffff" />
  <rect x="15" y="7" width="1" height="1" fill="#121c2d" />
  <rect x="16" y="7" width="1" height="1" fill="#38bdf8" />
  <rect x="17" y="7" width="14" height="1" fill="#0b0f19" />
  <rect x="31" y="7" width="1" height="1" fill="#1e293b" />
  <rect x="0" y="8" width="1" height="1" fill="#1e293b" />
  <rect x="1" y="8" width="13" height="1" fill="#0b0f19" />
  <rect x="14" y="8" width="1" height="1" fill="#ffffff" />
  <rect x="15" y="8" width="1" height="1" fill="#121c2d" />
  <rect x="16" y="8" width="1" height="1" fill="#38bdf8" />
  <rect x="17" y="8" width="14" height="1" fill="#0b0f19" />
  <rect x="31" y="8" width="1" height="1" fill="#1e293b" />
  <rect x="0" y="9" width="1" height="1" fill="#1e293b" />
  <rect x="1" y="9" width="6" height="1" fill="#0b0f19" />
  <rect x="7" y="9" width="1" height="1" fill="#19263a" />
  <rect x="8" y="9" width="5" height="1" fill="#0b0f19" />
  <rect x="13" y="9" width="1" height="1" fill="#ffffff" />
  <rect x="14" y="9" width="1" height="1" fill="#1a2a42" />
  <rect x="15" y="9" width="2" height="1" fill="#121c2d" />
  <rect x="17" y="9" width="1" height="1" fill="#38bdf8" />
  <rect x="18" y="9" width="13" height="1" fill="#0b0f19" />
  <rect x="31" y="9" width="1" height="1" fill="#1e293b" />
  <rect x="0" y="10" width="1" height="1" fill="#1e293b" />
  <rect x="1" y="10" width="12" height="1" fill="#0b0f19" />
  <rect x="13" y="10" width="1" height="1" fill="#7dd3fc" />
  <rect x="14" y="10" width="1" height="1" fill="#1a2a42" />
  <rect x="15" y="10" width="2" height="1" fill="#121c2d" />
  <rect x="17" y="10" width="1" height="1" fill="#38bdf8" />
  <rect x="18" y="10" width="13" height="1" fill="#0b0f19" />
  <rect x="31" y="10" width="1" height="1" fill="#1e293b" />
  <rect x="0" y="11" width="1" height="1" fill="#1e293b" />
  <rect x="1" y="11" width="11" height="1" fill="#0b0f19" />
  <rect x="12" y="11" width="1" height="1" fill="#7dd3fc" />
  <rect x="13" y="11" width="2" height="1" fill="#1a2a42" />
  <rect x="15" y="11" width="3" height="1" fill="#121c2d" />
  <rect x="18" y="11" width="1" height="1" fill="#38bdf8" />
  <rect x="19" y="11" width="12" height="1" fill="#0b0f19" />
  <rect x="31" y="11" width="1" height="1" fill="#1e293b" />
  <rect x="0" y="12" width="1" height="1" fill="#1e293b" />
  <rect x="1" y="12" width="11" height="1" fill="#0b0f19" />
  <rect x="12" y="12" width="1" height="1" fill="#7dd3fc" />
  <rect x="13" y="12" width="2" height="1" fill="#1a2a42" />
  <rect x="15" y="12" width="3" height="1" fill="#121c2d" />
  <rect x="18" y="12" width="1" height="1" fill="#38bdf8" />
  <rect x="19" y="12" width="12" height="1" fill="#0b0f19" />
  <rect x="31" y="12" width="1" height="1" fill="#1e293b" />
  <rect x="0" y="13" width="1" height="1" fill="#1e293b" />
  <rect x="1" y="13" width="10" height="1" fill="#0b0f19" />
  <rect x="11" y="13" width="1" height="1" fill="#7dd3fc" />
  <rect x="12" y="13" width="3" height="1" fill="#1a2a42" />
  <rect x="15" y="13" width="4" height="1" fill="#121c2d" />
  <rect x="19" y="13" width="1" height="1" fill="#38bdf8" />
  <rect x="20" y="13" width="11" height="1" fill="#0b0f19" />
  <rect x="31" y="13" width="1" height="1" fill="#1e293b" />
  <rect x="0" y="14" width="1" height="1" fill="#1e293b" />
  <rect x="1" y="14" width="9" height="1" fill="#0b0f19" />
  <rect x="10" y="14" width="1" height="1" fill="#bae6fd" />
  <rect x="11" y="14" width="1" height="1" fill="#7dd3fc" />
  <rect x="12" y="14" width="3" height="1" fill="#1a2a42" />
  <rect x="15" y="14" width="4" height="1" fill="#121c2d" />
  <rect x="19" y="14" width="1" height="1" fill="#38bdf8" />
  <rect x="20" y="14" width="11" height="1" fill="#0b0f19" />
  <rect x="31" y="14" width="1" height="1" fill="#1e293b" />
  <rect x="0" y="15" width="12" height="1" fill="#ffffff" />
  <rect x="12" y="15" width="5" height="1" fill="#f43f5e" />
  <rect x="17" y="15" width="3" height="1" fill="#121c2d" />
  <rect x="20" y="15" width="1" height="1" fill="#38bdf8" />
  <rect x="21" y="15" width="10" height="1" fill="#0b0f19" />
  <rect x="31" y="15" width="1" height="1" fill="#1e293b" />
  <rect x="0" y="16" width="10" height="1" fill="#bae6fd" />
  <rect x="10" y="16" width="1" height="1" fill="#ffffff" />
  <rect x="11" y="16" width="1" height="1" fill="#ffebb4" />
  <rect x="12" y="16" width="1" height="1" fill="#facc15" />
  <rect x="13" y="16" width="4" height="1" fill="#f97316" />
  <rect x="17" y="16" width="5" height="1" fill="#f43f5e" />
  <rect x="22" y="16" width="9" height="1" fill="#0b0f19" />
  <rect x="31" y="16" width="1" height="1" fill="#1e293b" />
  <rect x="0" y="17" width="1" height="1" fill="#1e293b" />
  <rect x="1" y="17" width="8" height="1" fill="#0b0f19" />
  <rect x="9" y="17" width="1" height="1" fill="#7dd3fc" />
  <rect x="10" y="17" width="2" height="1" fill="#1a2a42" />
  <rect x="12" y="17" width="2" height="1" fill="#22c55e" />
  <rect x="14" y="17" width="3" height="1" fill="#facc15" />
  <rect x="17" y="17" width="4" height="1" fill="#f97316" />
  <rect x="21" y="17" width="5" height="1" fill="#f43f5e" />
  <rect x="26" y="17" width="5" height="1" fill="#0b0f19" />
  <rect x="31" y="17" width="1" height="1" fill="#1e293b" />
  <rect x="0" y="18" width="1" height="1" fill="#1e293b" />
  <rect x="1" y="18" width="8" height="1" fill="#0b0f19" />
  <rect x="9" y="18" width="1" height="1" fill="#7dd3fc" />
  <rect x="10" y="18" width="3" height="1" fill="#1a2a42" />
  <rect x="13" y="18" width="1" height="1" fill="#06b6d4" />
  <rect x="14" y="18" width="3" height="1" fill="#22c55e" />
  <rect x="17" y="18" width="4" height="1" fill="#facc15" />
  <rect x="21" y="18" width="4" height="1" fill="#f97316" />
  <rect x="25" y="18" width="5" height="1" fill="#f43f5e" />
  <rect x="30" y="18" width="1" height="1" fill="#0b0f19" />
  <rect x="31" y="18" width="1" height="1" fill="#1e293b" />
  <rect x="0" y="19" width="1" height="1" fill="#1e293b" />
  <rect x="1" y="19" width="7" height="1" fill="#0b0f19" />
  <rect x="8" y="19" width="1" height="1" fill="#7dd3fc" />
  <rect x="9" y="19" width="5" height="1" fill="#1a2a42" />
  <rect x="14" y="19" width="3" height="1" fill="#06b6d4" />
  <rect x="17" y="19" width="4" height="1" fill="#22c55e" />
  <rect x="21" y="19" width="3" height="1" fill="#facc15" />
  <rect x="24" y="19" width="4" height="1" fill="#f97316" />
  <rect x="28" y="19" width="4" height="1" fill="#f43f5e" />
  <rect x="0" y="20" width="1" height="1" fill="#1e293b" />
  <rect x="1" y="20" width="7" height="1" fill="#0b0f19" />
  <rect x="8" y="20" width="1" height="1" fill="#7dd3fc" />
  <rect x="9" y="20" width="6" height="1" fill="#1a2a42" />
  <rect x="15" y="20" width="2" height="1" fill="#3b82f6" />
  <rect x="17" y="20" width="4" height="1" fill="#06b6d4" />
  <rect x="21" y="20" width="2" height="1" fill="#22c55e" />
  <rect x="23" y="20" width="4" height="1" fill="#facc15" />
  <rect x="27" y="20" width="5" height="1" fill="#f97316" />
  <rect x="0" y="21" width="1" height="1" fill="#1e293b" />
  <rect x="1" y="21" width="6" height="1" fill="#0b0f19" />
  <rect x="7" y="21" width="1" height="1" fill="#7dd3fc" />
  <rect x="8" y="21" width="7" height="1" fill="#1a2a42" />
  <rect x="15" y="21" width="1" height="1" fill="#121c2d" />
  <rect x="16" y="21" width="1" height="1" fill="#a855f7" />
  <rect x="17" y="21" width="4" height="1" fill="#3b82f6" />
  <rect x="21" y="21" width="1" height="1" fill="#06b6d4" />
  <rect x="22" y="21" width="3" height="1" fill="#22c55e" />
  <rect x="25" y="21" width="5" height="1" fill="#facc15" />
  <rect x="30" y="21" width="2" height="1" fill="#f97316" />
  <rect x="0" y="22" width="1" height="1" fill="#1e293b" />
  <rect x="1" y="22" width="6" height="1" fill="#0b0f19" />
  <rect x="7" y="22" width="1" height="1" fill="#7dd3fc" />
  <rect x="8" y="22" width="7" height="1" fill="#1a2a42" />
  <rect x="15" y="22" width="2" height="1" fill="#121c2d" />
  <rect x="17" y="22" width="3" height="1" fill="#a855f7" />
  <rect x="20" y="22" width="2" height="1" fill="#3b82f6" />
  <rect x="22" y="22" width="2" height="1" fill="#06b6d4" />
  <rect x="24" y="22" width="4" height="1" fill="#22c55e" />
  <rect x="28" y="22" width="4" height="1" fill="#facc15" />
  <rect x="0" y="23" width="1" height="1" fill="#1e293b" />
  <rect x="1" y="23" width="5" height="1" fill="#0b0f19" />
  <rect x="6" y="23" width="1" height="1" fill="#7dd3fc" />
  <rect x="7" y="23" width="13" height="1" fill="#0c1422" />
  <rect x="20" y="23" width="2" height="1" fill="#a855f7" />
  <rect x="22" y="23" width="1" height="1" fill="#3b82f6" />
  <rect x="23" y="23" width="3" height="1" fill="#06b6d4" />
  <rect x="26" y="23" width="5" height="1" fill="#22c55e" />
  <rect x="31" y="23" width="1" height="1" fill="#facc15" />
  <rect x="0" y="24" width="1" height="1" fill="#1e293b" />
  <rect x="1" y="24" width="5" height="1" fill="#0b0f19" />
  <rect x="6" y="24" width="9" height="1" fill="#7dd3fc" />
  <rect x="15" y="24" width="1" height="1" fill="#ffffff" />
  <rect x="16" y="24" width="5" height="1" fill="#7dd3fc" />
  <rect x="21" y="24" width="2" height="1" fill="#a855f7" />
  <rect x="23" y="24" width="1" height="1" fill="#3b82f6" />
  <rect x="24" y="24" width="1" height="1" fill="#7dd3fc" />
  <rect x="25" y="24" width="4" height="1" fill="#06b6d4" />
  <rect x="29" y="24" width="3" height="1" fill="#22c55e" />
  <rect x="0" y="25" width="1" height="1" fill="#1e293b" />
  <rect x="1" y="25" width="21" height="1" fill="#0b0f19" />
  <rect x="22" y="25" width="2" height="1" fill="#a855f7" />
  <rect x="24" y="25" width="3" height="1" fill="#3b82f6" />
  <rect x="27" y="25" width="5" height="1" fill="#06b6d4" />
  <rect x="0" y="26" width="1" height="1" fill="#1e293b" />
  <rect x="1" y="26" width="3" height="1" fill="#0b0f19" />
  <rect x="4" y="26" width="1" height="1" fill="#19263a" />
  <rect x="5" y="26" width="18" height="1" fill="#0b0f19" />
  <rect x="23" y="26" width="3" height="1" fill="#a855f7" />
  <rect x="26" y="26" width="4" height="1" fill="#3b82f6" />
  <rect x="30" y="26" width="2" height="1" fill="#06b6d4" />
  <rect x="0" y="27" width="1" height="1" fill="#1e293b" />
  <rect x="1" y="27" width="24" height="1" fill="#0b0f19" />
  <rect x="25" y="27" width="3" height="1" fill="#a855f7" />
  <rect x="28" y="27" width="4" height="1" fill="#3b82f6" />
  <rect x="0" y="28" width="1" height="1" fill="#1e293b" />
  <rect x="1" y="28" width="25" height="1" fill="#0b0f19" />
  <rect x="26" y="28" width="5" height="1" fill="#a855f7" />
  <rect x="31" y="28" width="1" height="1" fill="#3b82f6" />
  <rect x="1" y="29" width="1" height="1" fill="#1e293b" />
  <rect x="2" y="29" width="26" height="1" fill="#0b0f19" />
  <rect x="28" y="29" width="3" height="1" fill="#a855f7" />
  <rect x="2" y="30" width="1" height="1" fill="#1e293b" />
  <rect x="3" y="30" width="26" height="1" fill="#0b0f19" />
  <rect x="29" y="30" width="1" height="1" fill="#1e293b" />
  <rect x="3" y="31" width="26" height="1" fill="#1e293b" />
</svg>
